<svg width="820" height="820" viewBox="0 0 820 820" fill="none" xmlns="http://www.w3.org/2000/svg">
  <rect width="820" height="820" fill="url(#paint0_linear_315_6510)"/>
  <path d="M599.733 343.95C571.289 316.21 537.35 299.789 497.991 294.597C502.971 303 505.819 312.797 505.819 323.273C505.819 332.74 503.467 341.657 499.351 349.509C521.144 354.628 540.345 365.691 556.864 382.772C580.476 407.174 592.291 436.767 592.291 471.572C592.291 506.376 580.476 535.951 556.864 560.353C533.253 584.754 504.275 596.955 469.933 596.955C435.572 596.955 406.594 584.754 382.982 560.353C365.618 542.409 354.667 521.64 350.073 498.083C342.043 501.936 333.039 504.082 323.54 504.082C310.64 504.082 298.66 500.101 288.774 493.313C293.129 534.722 310.218 570.04 340.114 599.193C375.118 633.318 418.391 650.381 469.914 650.381C521.438 650.381 564.692 633.318 599.715 599.193C634.719 565.068 652.23 522.521 652.23 471.572C652.23 420.622 634.737 378.094 599.733 343.95Z" fill="white"/>
  <path d="M477.098 193.285C475.04 178.663 460.469 168.333 444.575 170.223C293.239 188.24 176.944 303.092 168.05 443.317C167.113 458.05 179.333 470.673 195.337 471.535C195.907 471.572 196.477 471.59 197.046 471.59C212.297 471.59 225.105 460.637 226.005 446.436C233.263 331.823 328.317 237.942 452.017 223.209C467.929 221.301 479.156 207.908 477.098 193.285Z" fill="white"/>
  <path d="M477.411 318.155C475.059 302.945 460.8 292.524 445.585 294.891C370.432 306.504 310.327 364.407 296.032 438.988C293.128 454.105 303.051 468.691 318.192 471.59C319.956 471.92 321.738 472.085 323.465 472.085C336.585 472.085 348.272 462.802 350.844 449.464C360.73 397.945 402.239 357.949 454.129 349.931C469.326 347.583 479.762 333.364 477.411 318.155Z" fill="white"/>
  <path d="M464.089 402.605C430.206 403.926 402.882 430.603 400.567 464.178H464.089V402.605Z" fill="white"/>
  <defs>
    <linearGradient id="paint0_linear_315_6510" x1="820" y1="820" x2="618.543" y2="-131.027" gradientUnits="userSpaceOnUse">
      <stop stop-color="#0E649B"/>
      <stop offset="1" stop-color="#8E44AD"/>
    </linearGradient>
  </defs>
</svg>
